<svg xmlns="http://www.w3.org/2000/svg" xmlns:xlink="http://www.w3.org/1999/xlink" width="512" zoomAndPan="magnify" viewBox="0 0 384 383.999986" height="512" preserveAspectRatio="xMidYMid meet" version="1.0"><defs><clipPath id="7f35698e1a"><path d="M 173 52 L 224 52 L 224 377 L 173 377 Z M 173 52 " clip-rule="nonzero"/></clipPath><clipPath id="f1f390fc67"><path d="M 204.535156 376.457031 L 194.59375 373.167969 C 194.59375 373.167969 195.851562 322.785156 177.703125 319.257812 C 165.703125 305.386719 179.546875 -273.566406 223.136719 317.28125 C 223.136719 317.28125 208.222656 324.765625 205.417969 337.460938 C 202.613281 350.15625 204.535156 376.457031 204.535156 376.457031 Z M 204.535156 376.457031 " clip-rule="nonzero"/></clipPath><linearGradient x1="67.14235" gradientTransform="matrix(-2.619142, -0.85529, 0.775052, -2.352047, 591.340745, -700.220494)" y1="-401.480865" x2="4.181626" gradientUnits="userSpaceOnUse" y2="-401.911204" id="9318619591"><stop stop-opacity="1" stop-color="rgb(60.798645%, 60.398865%, 45.899963%)" offset="0"/><stop stop-opacity="1" stop-color="rgb(60.798645%, 60.398865%, 45.899963%)" offset="0.0162413"/><stop stop-opacity="1" stop-color="rgb(60.798645%, 60.398865%, 45.899963%)" offset="0.25"/><stop stop-opacity="1" stop-color="rgb(60.804749%, 60.404968%, 45.91217%)" offset="0.375"/><stop stop-opacity="1" stop-color="rgb(60.865784%, 60.466003%, 46.034241%)" offset="0.4375"/><stop stop-opacity="1" stop-color="rgb(60.974121%, 60.574341%, 46.250916%)" offset="0.5"/><stop stop-opacity="1" stop-color="rgb(61.083984%, 60.682678%, 46.469116%)" offset="0.5625"/><stop stop-opacity="1" stop-color="rgb(61.164856%, 60.765076%, 46.630859%)" offset="0.59375"/><stop stop-opacity="1" stop-color="rgb(61.250305%, 60.850525%, 46.757507%)" offset="0.601562"/><stop stop-opacity="1" stop-color="rgb(61.416626%, 61.016846%, 46.954346%)" offset="0.609375"/><stop stop-opacity="1" stop-color="rgb(61.631775%, 61.231995%, 47.207642%)" offset="0.617188"/><stop stop-opacity="1" stop-color="rgb(61.846924%, 61.447144%, 47.459412%)" offset="0.625"/><stop stop-opacity="1" stop-color="rgb(62.062073%, 61.660767%, 47.711182%)" offset="0.632812"/><stop stop-opacity="1" stop-color="rgb(62.275696%, 61.875916%, 47.962952%)" offset="0.640625"/><stop stop-opacity="1" stop-color="rgb(62.490845%, 62.091064%, 48.216248%)" offset="0.648438"/><stop stop-opacity="1" stop-color="rgb(62.705994%, 62.306213%, 48.468018%)" offset="0.65625"/><stop stop-opacity="1" stop-color="rgb(62.921143%, 62.521362%, 48.719788%)" offset="0.664062"/><stop stop-opacity="1" stop-color="rgb(63.134766%, 62.734985%, 48.971558%)" offset="0.671875"/><stop stop-opacity="1" stop-color="rgb(63.349915%, 62.950134%, 49.224854%)" offset="0.679688"/><stop stop-opacity="1" stop-color="rgb(63.659668%, 63.259888%, 49.591064%)" offset="0.683594"/><stop stop-opacity="1" stop-color="rgb(63.86261%, 63.461304%, 49.832153%)" offset="0.6875"/><stop stop-opacity="1" stop-color="rgb(64.085388%, 63.685608%, 50.099182%)" offset="0.691406"/><stop stop-opacity="1" stop-color="rgb(64.309692%, 63.909912%, 50.367737%)" offset="0.695312"/><stop stop-opacity="1" stop-color="rgb(64.533997%, 64.134216%, 50.634766%)" offset="0.699219"/><stop stop-opacity="1" stop-color="rgb(64.758301%, 64.358521%, 50.90332%)" offset="0.703125"/><stop stop-opacity="1" stop-color="rgb(64.982605%, 64.582825%, 51.170349%)" offset="0.707031"/><stop stop-opacity="1" stop-color="rgb(65.206909%, 64.807129%, 51.438904%)" offset="0.710938"/><stop stop-opacity="1" stop-color="rgb(65.431213%, 65.031433%, 51.705933%)" offset="0.714844"/><stop stop-opacity="1" stop-color="rgb(65.655518%, 65.255737%, 51.974487%)" offset="0.71875"/><stop stop-opacity="1" stop-color="rgb(65.878296%, 65.478516%, 52.241516%)" offset="0.722656"/><stop stop-opacity="1" stop-color="rgb(66.1026%, 65.70282%, 52.510071%)" offset="0.726562"/><stop stop-opacity="1" stop-color="rgb(66.326904%, 65.927124%, 52.7771%)" offset="0.730469"/><stop stop-opacity="1" stop-color="rgb(66.551208%, 66.151428%, 53.045654%)" offset="0.734375"/><stop stop-opacity="1" stop-color="rgb(66.775513%, 66.375732%, 53.312683%)" offset="0.738281"/><stop stop-opacity="1" stop-color="rgb(66.999817%, 66.600037%, 53.581238%)" offset="0.742188"/><stop stop-opacity="1" stop-color="rgb(67.367554%, 66.967773%, 54.057312%)" offset="0.746094"/><stop stop-opacity="1" stop-color="rgb(67.735291%, 67.33551%, 54.534912%)" offset="0.75"/><stop stop-opacity="1" stop-color="rgb(68.1427%, 67.74292%, 55.070496%)" offset="0.753906"/><stop stop-opacity="1" stop-color="rgb(68.551636%, 68.151855%, 55.607605%)" offset="0.757812"/><stop stop-opacity="1" stop-color="rgb(68.959045%, 68.559265%, 56.143188%)" offset="0.761719"/><stop stop-opacity="1" stop-color="rgb(69.367981%, 68.968201%, 56.680298%)" offset="0.765625"/><stop stop-opacity="1" stop-color="rgb(69.775391%, 69.37561%, 57.215881%)" offset="0.769531"/><stop stop-opacity="1" stop-color="rgb(70.184326%, 69.784546%, 57.752991%)" offset="0.773438"/><stop stop-opacity="1" stop-color="rgb(70.591736%, 70.191956%, 58.288574%)" offset="0.777344"/><stop stop-opacity="1" stop-color="rgb(71.000671%, 70.600891%, 58.825684%)" offset="0.78125"/><stop stop-opacity="1" stop-color="rgb(71.408081%, 71.008301%, 59.361267%)" offset="0.785156"/><stop stop-opacity="1" stop-color="rgb(71.817017%, 71.417236%, 59.898376%)" offset="0.789062"/><stop stop-opacity="1" stop-color="rgb(72.355652%, 71.936035%, 60.575867%)" offset="0.792969"/><stop stop-opacity="1" stop-color="rgb(72.895813%, 72.454834%, 61.254883%)" offset="0.796875"/><stop stop-opacity="1" stop-color="rgb(73.548889%, 73.071289%, 62.057495%)" offset="0.800781"/><stop stop-opacity="1" stop-color="rgb(74.203491%, 73.687744%, 62.860107%)" offset="0.804688"/><stop stop-opacity="1" stop-color="rgb(74.856567%, 74.304199%, 63.66272%)" offset="0.808594"/><stop stop-opacity="1" stop-color="rgb(75.509644%, 74.920654%, 64.466858%)" offset="0.8125"/><stop stop-opacity="1" stop-color="rgb(76.16272%, 75.537109%, 65.26947%)" offset="0.816406"/><stop stop-opacity="1" stop-color="rgb(76.817322%, 76.153564%, 66.073608%)" offset="0.820312"/><stop stop-opacity="1" stop-color="rgb(77.470398%, 76.77002%, 66.876221%)" offset="0.824219"/><stop stop-opacity="1" stop-color="rgb(78.125%, 77.386475%, 67.680359%)" offset="0.828125"/><stop stop-opacity="1" stop-color="rgb(78.82843%, 78.059387%, 68.551636%)" offset="0.832031"/><stop stop-opacity="1" stop-color="rgb(79.53186%, 78.7323%, 69.424438%)" offset="0.835938"/><stop stop-opacity="1" stop-color="rgb(80.461121%, 79.66156%, 70.611572%)" offset="0.839844"/><stop stop-opacity="1" stop-color="rgb(81.391907%, 80.592346%, 71.800232%)" offset="0.84375"/><stop stop-opacity="1" stop-color="rgb(82.321167%, 81.521606%, 72.987366%)" offset="0.847656"/><stop stop-opacity="1" stop-color="rgb(83.251953%, 82.452393%, 74.176025%)" offset="0.851562"/><stop stop-opacity="1" stop-color="rgb(84.181213%, 83.381653%, 75.363159%)" offset="0.855469"/><stop stop-opacity="1" stop-color="rgb(85.112%, 84.312439%, 76.551819%)" offset="0.859375"/><stop stop-opacity="1" stop-color="rgb(86.042786%, 85.241699%, 77.738953%)" offset="0.863281"/><stop stop-opacity="1" stop-color="rgb(86.973572%, 86.172485%, 78.927612%)" offset="0.867188"/><stop stop-opacity="1" stop-color="rgb(88.220215%, 87.420654%, 80.528259%)" offset="0.871094"/><stop stop-opacity="1" stop-color="rgb(89.468384%, 88.668823%, 82.130432%)" offset="0.875"/><stop stop-opacity="1" stop-color="rgb(90.841675%, 90.040588%, 83.895874%)" offset="0.878906"/><stop stop-opacity="1" stop-color="rgb(92.214966%, 91.413879%, 85.661316%)" offset="0.882813"/><stop stop-opacity="1" stop-color="rgb(93.586731%, 92.78717%, 87.426758%)" offset="0.886719"/><stop stop-opacity="1" stop-color="rgb(94.960022%, 94.160461%, 89.1922%)" offset="0.890625"/><stop stop-opacity="1" stop-color="rgb(96.220398%, 95.420837%, 90.820312%)" offset="0.894531"/><stop stop-opacity="1" stop-color="rgb(97.4823%, 96.681213%, 92.448425%)" offset="0.898438"/><stop stop-opacity="1" stop-color="rgb(97.940063%, 97.140503%, 93.074036%)" offset="0.902344"/><stop stop-opacity="1" stop-color="rgb(98.399353%, 97.599792%, 93.699646%)" offset="0.90625"/><stop stop-opacity="1" stop-color="rgb(98.399353%, 97.599792%, 93.699646%)" offset="0.9375"/><stop stop-opacity="1" stop-color="rgb(98.399353%, 97.599792%, 93.699646%)" offset="0.983759"/><stop stop-opacity="1" stop-color="rgb(98.399353%, 97.599792%, 93.699646%)" offset="1"/></linearGradient><clipPath id="a61eca0f97"><path d="M 194 6 L 280 6 L 280 328 L 194 328 Z M 194 6 " clip-rule="nonzero"/></clipPath><clipPath id="6a1b8f1f7b"><path d="M 209.90625 327.8125 C 209.90625 327.8125 296.367188 270.878906 276.109375 152.582031 C 256.597656 66.652344 210.550781 38.429688 205.605469 27.632812 C 201.308594 20.910156 197.652344 13.851562 194.648438 6.460938 L 198.414062 245.890625 C 198.414062 245.890625 190.71875 318.992188 209.90625 327.8125 Z M 209.90625 327.8125 " clip-rule="nonzero"/></clipPath><linearGradient x1="67.250743" gradientTransform="matrix(-2.619142, -0.85529, 0.775052, -2.352047, 591.340745, -700.220494)" y1="-313.68007" x2="-10.122034" gradientUnits="userSpaceOnUse" y2="-447.703833" id="65bb063397"><stop stop-opacity="1" stop-color="rgb(34.899902%, 61.999512%, 29.798889%)" offset="0"/><stop stop-opacity="1" stop-color="rgb(34.735107%, 61.834717%, 29.6875%)" offset="0.125"/><stop stop-opacity="1" stop-color="rgb(34.451294%, 61.550903%, 29.493713%)" offset="0.15625"/><stop stop-opacity="1" stop-color="rgb(34.210205%, 61.309814%, 29.328918%)" offset="0.1875"/><stop stop-opacity="1" stop-color="rgb(33.969116%, 61.068726%, 29.164124%)" offset="0.21875"/><stop stop-opacity="1" stop-color="rgb(33.728027%, 60.827637%, 28.999329%)" offset="0.235585"/><stop stop-opacity="1" stop-color="rgb(33.607483%, 60.707092%, 28.916931%)" offset="0.25"/><stop stop-opacity="1" stop-color="rgb(33.485413%, 60.586548%, 28.834534%)" offset="0.28125"/><stop stop-opacity="1" stop-color="rgb(33.244324%, 60.345459%, 28.669739%)" offset="0.3125"/><stop stop-opacity="1" stop-color="rgb(33.003235%, 60.10437%, 28.504944%)" offset="0.34375"/><stop stop-opacity="1" stop-color="rgb(32.762146%, 59.861755%, 28.340149%)" offset="0.375"/><stop stop-opacity="1" stop-color="rgb(32.521057%, 59.620667%, 28.175354%)" offset="0.40625"/><stop stop-opacity="1" stop-color="rgb(32.279968%, 59.379578%, 28.012085%)" offset="0.4375"/><stop stop-opacity="1" stop-color="rgb(32.038879%, 59.138489%, 27.84729%)" offset="0.46875"/><stop stop-opacity="1" stop-color="rgb(31.797791%, 58.8974%, 27.682495%)" offset="0.5"/><stop stop-opacity="1" stop-color="rgb(31.556702%, 58.656311%, 27.5177%)" offset="0.53125"/><stop stop-opacity="1" stop-color="rgb(31.315613%, 58.415222%, 27.352905%)" offset="0.5625"/><stop stop-opacity="1" stop-color="rgb(31.072998%, 58.174133%, 27.18811%)" offset="0.59375"/><stop stop-opacity="1" stop-color="rgb(30.831909%, 57.933044%, 27.023315%)" offset="0.625"/><stop stop-opacity="1" stop-color="rgb(30.59082%, 57.69043%, 26.858521%)" offset="0.65625"/><stop stop-opacity="1" stop-color="rgb(30.349731%, 57.449341%, 26.693726%)" offset="0.6875"/><stop stop-opacity="1" stop-color="rgb(30.108643%, 57.208252%, 26.528931%)" offset="0.71875"/><stop stop-opacity="1" stop-color="rgb(29.867554%, 56.967163%, 26.364136%)" offset="0.75"/><stop stop-opacity="1" stop-color="rgb(29.626465%, 56.726074%, 26.199341%)" offset="0.764415"/><stop stop-opacity="1" stop-color="rgb(29.50592%, 56.60553%, 26.118469%)" offset="0.78125"/><stop stop-opacity="1" stop-color="rgb(29.385376%, 56.484985%, 26.036072%)" offset="0.8125"/><stop stop-opacity="1" stop-color="rgb(29.144287%, 56.243896%, 25.871277%)" offset="0.84375"/><stop stop-opacity="1" stop-color="rgb(28.901672%, 56.002808%, 25.706482%)" offset="0.875"/><stop stop-opacity="1" stop-color="rgb(28.689575%, 55.79071%, 25.561523%)" offset="1"/></linearGradient><clipPath id="2ac78c794c"><path d="M 112 5.445312 L 200 5.445312 L 200 331 L 112 331 Z M 112 5.445312 " clip-rule="nonzero"/></clipPath><clipPath id="9b627c26b7"><path d="M 189.515625 330.992188 C 189.515625 330.992188 108.429688 275.664062 113.082031 178.027344 C 117.730469 80.390625 175.03125 32.414062 186.203125 23.703125 C 193.417969 16.003906 193.710938 13.011719 194.21875 5.445312 C 199.269531 16.324219 198.414062 167.683594 198.949219 185.378906 C 201.089844 254.230469 195.207031 318 189.515625 330.992188 Z M 189.515625 330.992188 " clip-rule="nonzero"/></clipPath><linearGradient x1="104.32238" gradientTransform="matrix(-2.619142, -0.85529, 0.775052, -2.352047, 591.340745, -700.220494)" y1="-428.682455" x2="-5.983342" gradientUnits="userSpaceOnUse" y2="-354.58659" id="05a086d294"><stop stop-opacity="1" stop-color="rgb(30.999756%, 63.899231%, 27.49939%)" offset="0"/><stop stop-opacity="1" stop-color="rgb(30.999756%, 63.899231%, 27.49939%)" offset="0.25"/><stop stop-opacity="1" stop-color="rgb(30.999756%, 63.899231%, 27.49939%)" offset="0.3125"/><stop stop-opacity="1" stop-color="rgb(31.04248%, 63.920593%, 27.537537%)" offset="0.34375"/><stop stop-opacity="1" stop-color="rgb(31.240845%, 64.022827%, 27.716064%)" offset="0.351563"/><stop stop-opacity="1" stop-color="rgb(31.55365%, 64.183044%, 27.996826%)" offset="0.359375"/><stop stop-opacity="1" stop-color="rgb(31.866455%, 64.343262%, 28.277588%)" offset="0.367188"/><stop stop-opacity="1" stop-color="rgb(32.17926%, 64.503479%, 28.55835%)" offset="0.375"/><stop stop-opacity="1" stop-color="rgb(32.492065%, 64.665222%, 28.839111%)" offset="0.382813"/><stop stop-opacity="1" stop-color="rgb(32.804871%, 64.825439%, 29.119873%)" offset="0.390625"/><stop stop-opacity="1" stop-color="rgb(33.117676%, 64.985657%, 29.400635%)" offset="0.398438"/><stop stop-opacity="1" stop-color="rgb(33.430481%, 65.145874%, 29.681396%)" offset="0.40625"/><stop stop-opacity="1" stop-color="rgb(33.743286%, 65.306091%, 29.963684%)" offset="0.414062"/><stop stop-opacity="1" stop-color="rgb(34.056091%, 65.466309%, 30.244446%)" offset="0.421875"/><stop stop-opacity="1" stop-color="rgb(34.370422%, 65.628052%, 30.525208%)" offset="0.427602"/><stop stop-opacity="1" stop-color="rgb(34.527588%, 65.708923%, 30.665588%)" offset="0.429688"/><stop stop-opacity="1" stop-color="rgb(34.683228%, 65.788269%, 30.805969%)" offset="0.4375"/><stop stop-opacity="1" stop-color="rgb(35.07843%, 65.988159%, 31.150818%)" offset="0.441406"/><stop stop-opacity="1" stop-color="rgb(35.317993%, 66.108704%, 31.356812%)" offset="0.445312"/><stop stop-opacity="1" stop-color="rgb(35.575867%, 66.236877%, 31.576538%)" offset="0.449219"/><stop stop-opacity="1" stop-color="rgb(35.83374%, 66.366577%, 31.797791%)" offset="0.453125"/><stop stop-opacity="1" stop-color="rgb(36.091614%, 66.494751%, 32.019043%)" offset="0.457031"/><stop stop-opacity="1" stop-color="rgb(36.351013%, 66.624451%, 32.240295%)" offset="0.460938"/><stop stop-opacity="1" stop-color="rgb(36.608887%, 66.75415%, 32.460022%)" offset="0.464844"/><stop stop-opacity="1" stop-color="rgb(36.868286%, 66.88385%, 32.681274%)" offset="0.46875"/><stop stop-opacity="1" stop-color="rgb(37.12616%, 67.012024%, 32.901001%)" offset="0.472656"/><stop stop-opacity="1" stop-color="rgb(37.384033%, 67.141724%, 33.122253%)" offset="0.476563"/><stop stop-opacity="1" stop-color="rgb(37.641907%, 67.269897%, 33.343506%)" offset="0.480469"/><stop stop-opacity="1" stop-color="rgb(37.901306%, 67.399597%, 33.564758%)" offset="0.484375"/><stop stop-opacity="1" stop-color="rgb(38.15918%, 67.529297%, 33.784485%)" offset="0.488281"/><stop stop-opacity="1" stop-color="rgb(38.417053%, 67.658997%, 34.005737%)" offset="0.492188"/><stop stop-opacity="1" stop-color="rgb(38.674927%, 67.78717%, 34.225464%)" offset="0.496094"/><stop stop-opacity="1" stop-color="rgb(38.934326%, 67.91687%, 34.446716%)" offset="0.5"/><stop stop-opacity="1" stop-color="rgb(39.1922%, 68.045044%, 34.667969%)" offset="0.503906"/><stop stop-opacity="1" stop-color="rgb(39.451599%, 68.174744%, 34.889221%)" offset="0.507812"/><stop stop-opacity="1" stop-color="rgb(39.709473%, 68.304443%, 35.108948%)" offset="0.511719"/><stop stop-opacity="1" stop-color="rgb(39.967346%, 68.434143%, 35.3302%)" offset="0.515625"/><stop stop-opacity="1" stop-color="rgb(40.22522%, 68.562317%, 35.551453%)" offset="0.519531"/><stop stop-opacity="1" stop-color="rgb(40.484619%, 68.692017%, 35.772705%)" offset="0.523438"/><stop stop-opacity="1" stop-color="rgb(40.742493%, 68.82019%, 35.992432%)" offset="0.527344"/><stop stop-opacity="1" stop-color="rgb(41.000366%, 68.94989%, 36.213684%)" offset="0.53125"/><stop stop-opacity="1" stop-color="rgb(41.25824%, 69.078064%, 36.433411%)" offset="0.535156"/><stop stop-opacity="1" stop-color="rgb(41.517639%, 69.207764%, 36.654663%)" offset="0.539063"/><stop stop-opacity="1" stop-color="rgb(41.775513%, 69.337463%, 36.875916%)" offset="0.542969"/><stop stop-opacity="1" stop-color="rgb(42.034912%, 69.467163%, 37.097168%)" offset="0.546875"/><stop stop-opacity="1" stop-color="rgb(42.292786%, 69.595337%, 37.316895%)" offset="0.550781"/><stop stop-opacity="1" stop-color="rgb(42.550659%, 69.725037%, 37.538147%)" offset="0.554688"/><stop stop-opacity="1" stop-color="rgb(42.808533%, 69.85321%, 37.757874%)" offset="0.558594"/><stop stop-opacity="1" stop-color="rgb(43.067932%, 69.98291%, 37.979126%)" offset="0.5625"/><stop stop-opacity="1" stop-color="rgb(43.325806%, 70.11261%, 38.200378%)" offset="0.566406"/><stop stop-opacity="1" stop-color="rgb(43.583679%, 70.24231%, 38.421631%)" offset="0.570313"/><stop stop-opacity="1" stop-color="rgb(43.841553%, 70.370483%, 38.641357%)" offset="0.574219"/><stop stop-opacity="1" stop-color="rgb(44.100952%, 70.500183%, 38.86261%)" offset="0.578125"/><stop stop-opacity="1" stop-color="rgb(44.358826%, 70.628357%, 39.082336%)" offset="0.582031"/><stop stop-opacity="1" stop-color="rgb(44.618225%, 70.758057%, 39.303589%)" offset="0.585938"/><stop stop-opacity="1" stop-color="rgb(44.876099%, 70.887756%, 39.524841%)" offset="0.589844"/><stop stop-opacity="1" stop-color="rgb(45.133972%, 71.017456%, 39.746094%)" offset="0.59375"/><stop stop-opacity="1" stop-color="rgb(45.391846%, 71.14563%, 39.96582%)" offset="0.597656"/><stop stop-opacity="1" stop-color="rgb(45.651245%, 71.27533%, 40.187073%)" offset="0.601563"/><stop stop-opacity="1" stop-color="rgb(45.932007%, 71.41571%, 40.426636%)" offset="0.605469"/><stop stop-opacity="1" stop-color="rgb(46.214294%, 71.556091%, 40.667725%)" offset="0.609375"/><stop stop-opacity="1" stop-color="rgb(46.516418%, 71.707153%, 40.925598%)" offset="0.613281"/><stop stop-opacity="1" stop-color="rgb(46.818542%, 71.859741%, 41.184998%)" offset="0.617188"/><stop stop-opacity="1" stop-color="rgb(47.120667%, 72.010803%, 41.442871%)" offset="0.621094"/><stop stop-opacity="1" stop-color="rgb(47.424316%, 72.161865%, 41.702271%)" offset="0.625"/><stop stop-opacity="1" stop-color="rgb(47.72644%, 72.312927%, 41.960144%)" offset="0.628906"/><stop stop-opacity="1" stop-color="rgb(48.028564%, 72.463989%, 42.219543%)" offset="0.632813"/><stop stop-opacity="1" stop-color="rgb(48.330688%, 72.615051%, 42.477417%)" offset="0.636719"/><stop stop-opacity="1" stop-color="rgb(48.634338%, 72.767639%, 42.736816%)" offset="0.640625"/><stop stop-opacity="1" stop-color="rgb(48.936462%, 72.918701%, 42.99469%)" offset="0.644531"/><stop stop-opacity="1" stop-color="rgb(49.240112%, 73.069763%, 43.254089%)" offset="0.648438"/><stop stop-opacity="1" stop-color="rgb(49.542236%, 73.220825%, 43.511963%)" offset="0.652344"/><stop stop-opacity="1" stop-color="rgb(49.84436%, 73.371887%, 43.771362%)" offset="0.65625"/><stop stop-opacity="1" stop-color="rgb(50.146484%, 73.522949%, 44.029236%)" offset="0.660156"/><stop stop-opacity="1" stop-color="rgb(50.450134%, 73.674011%, 44.288635%)" offset="0.664063"/><stop stop-opacity="1" stop-color="rgb(50.752258%, 73.825073%, 44.546509%)" offset="0.667969"/><stop stop-opacity="1" stop-color="rgb(51.055908%, 73.977661%, 44.805908%)" offset="0.671875"/><stop stop-opacity="1" stop-color="rgb(51.358032%, 74.128723%, 45.063782%)" offset="0.675781"/><stop stop-opacity="1" stop-color="rgb(51.660156%, 74.279785%, 45.323181%)" offset="0.679688"/><stop stop-opacity="1" stop-color="rgb(51.96228%, 74.430847%, 45.581055%)" offset="0.683594"/><stop stop-opacity="1" stop-color="rgb(52.26593%, 74.581909%, 45.840454%)" offset="0.6875"/><stop stop-opacity="1" stop-color="rgb(52.568054%, 74.732971%, 46.098328%)" offset="0.691406"/><stop stop-opacity="1" stop-color="rgb(52.871704%, 74.885559%, 46.357727%)" offset="0.695313"/><stop stop-opacity="1" stop-color="rgb(53.173828%, 75.036621%, 46.615601%)" offset="0.699219"/><stop stop-opacity="1" stop-color="rgb(53.475952%, 75.187683%, 46.875%)" offset="0.703125"/><stop stop-opacity="1" stop-color="rgb(53.778076%, 75.338745%, 47.132874%)" offset="0.707031"/><stop stop-opacity="1" stop-color="rgb(54.081726%, 75.489807%, 47.390747%)" offset="0.710938"/><stop stop-opacity="1" stop-color="rgb(54.38385%, 75.640869%, 47.648621%)" offset="0.714844"/><stop stop-opacity="1" stop-color="rgb(54.6875%, 75.793457%, 47.90802%)" offset="0.71875"/><stop stop-opacity="1" stop-color="rgb(54.989624%, 75.944519%, 48.165894%)" offset="0.722656"/><stop stop-opacity="1" stop-color="rgb(55.291748%, 76.095581%, 48.425293%)" offset="0.726563"/><stop stop-opacity="1" stop-color="rgb(55.593872%, 76.246643%, 48.683167%)" offset="0.730469"/><stop stop-opacity="1" stop-color="rgb(55.897522%, 76.397705%, 48.942566%)" offset="0.734375"/><stop stop-opacity="1" stop-color="rgb(56.199646%, 76.548767%, 49.200439%)" offset="0.738281"/><stop stop-opacity="1" stop-color="rgb(56.50177%, 76.701355%, 49.459839%)" offset="0.742188"/><stop stop-opacity="1" stop-color="rgb(56.700134%, 76.800537%, 49.629211%)" offset="0.746094"/><stop stop-opacity="1" stop-color="rgb(56.898499%, 76.899719%, 49.798584%)" offset="0.75"/><stop stop-opacity="1" stop-color="rgb(56.898499%, 76.899719%, 49.798584%)" offset="1"/></linearGradient><clipPath id="e99197d6bb"><path d="M 300.480469 205.039062 L 384 205.039062 L 384 345.601562 L 300.480469 345.601562 Z M 300.480469 205.039062 " clip-rule="nonzero"/></clipPath></defs><g clip-path="url(#7f35698e1a)"><g clip-path="url(#f1f390fc67)"><path fill="url(#9318619591)" d="M 217.558594 393.386719 L 333.515625 41.492188 L 171.285156 -11.484375 L 55.324219 340.410156 Z M 217.558594 393.386719 " fill-rule="nonzero"/></g></g><g clip-path="url(#a61eca0f97)"><g clip-path="url(#6a1b8f1f7b)"><path fill="url(#65bb063397)" d="M 286.101562 358.957031 L 391.96875 37.683594 L 200.984375 -24.683594 L 95.113281 296.589844 Z M 286.101562 358.957031 " fill-rule="nonzero"/></g></g><g clip-path="url(#2ac78c794c)"><g clip-path="url(#9b627c26b7)"><path fill="url(#05a086d294)" d="M 192.21875 357.910156 L 297.941406 37.074219 L 118.660156 -21.46875 L 12.9375 299.363281 Z M 192.21875 357.910156 " fill-rule="nonzero"/></g></g><path fill="#494849" d="M 331.109375 321.476562 C 330.414062 319.761719 330.128906 317.976562 330.253906 316.128906 C 330.207031 314.84375 330.484375 313.632812 331.082031 312.496094 C 334.628906 311.996094 338.128906 311.285156 341.585938 310.359375 C 346.425781 309.15625 348.242188 306.5625 348.535156 300.363281 C 349.335938 285.792969 349.363281 258.480469 349.070312 239.289062 L 349.070312 238.726562 C 349.160156 238.09375 349.171875 237.460938 349.105469 236.824219 C 349.039062 236.1875 348.894531 235.570312 348.671875 234.96875 C 348.453125 234.371094 348.160156 233.808594 347.796875 233.28125 C 347.433594 232.753906 347.011719 232.28125 346.53125 231.859375 C 342.007812 229.023438 337.167969 226.902344 332.019531 225.496094 C 329.746094 224.800781 328.464844 223.597656 328.542969 222.210938 C 328.625 220.820312 330.042969 219.136719 333.035156 218.546875 C 345.664062 216.742188 357.941406 213.570312 369.863281 209.03125 C 370.292969 209.582031 370.601562 210.191406 370.789062 210.863281 C 370.980469 211.535156 371.035156 212.214844 370.957031 212.90625 C 370.957031 213.761719 370.824219 214.671875 370.746094 215.582031 C 370.503906 218.253906 370.238281 221.382812 370.238281 224.429688 C 370.265625 224.675781 370.339844 224.90625 370.457031 225.128906 C 370.574219 225.347656 370.726562 225.539062 370.914062 225.703125 C 371.101562 225.863281 371.3125 225.988281 371.546875 226.074219 C 371.777344 226.15625 372.019531 226.195312 372.269531 226.191406 C 372.824219 226.199219 373.296875 226 373.683594 225.605469 C 389.210938 213.441406 403.082031 209.113281 410.246094 209.113281 C 421.976562 209.113281 431.117188 214.726562 438.199219 226.246094 C 438.363281 226.527344 438.585938 226.753906 438.867188 226.917969 C 439.148438 227.085938 439.453125 227.171875 439.777344 227.179688 C 440.417969 227.175781 440.917969 226.910156 441.273438 226.378906 C 455.546875 215.6875 469.683594 209.113281 479.144531 209.113281 C 501.515625 209.113281 514.90625 225.84375 514.90625 253.882812 C 514.90625 261.898438 514.90625 272.136719 514.746094 281.679688 C 514.746094 290.042969 514.609375 297.875 514.609375 303.300781 C 514.707031 303.921875 514.882812 304.523438 515.128906 305.101562 C 515.378906 305.679688 515.699219 306.21875 516.082031 306.714844 C 516.46875 307.214844 516.910156 307.65625 517.40625 308.042969 C 517.90625 308.425781 518.441406 308.746094 519.019531 308.996094 C 523.535156 310.71875 528.195312 311.859375 533 312.414062 L 533.238281 312.414062 C 533.46875 315.5625 532.996094 318.601562 531.820312 321.53125 C 530.351562 321.53125 528.292969 321.53125 525.730469 321.289062 C 521.078125 321.046875 514.71875 320.726562 507.3125 320.726562 C 492.429688 320.726562 484.652344 321.023438 477.246094 321.503906 C 476.613281 318.472656 476.613281 315.445312 477.246094 312.414062 C 480.308594 311.882812 483.328125 311.179688 486.308594 310.304688 C 491.039062 308.726562 492.402344 306.589844 492.695312 300.308594 C 492.695312 295.84375 493.65625 256.527344 492.132812 247.199219 C 492.046875 246.460938 491.925781 245.730469 491.769531 245.003906 C 491.613281 244.277344 491.425781 243.5625 491.203125 242.851562 C 490.980469 242.144531 490.726562 241.445312 490.4375 240.761719 C 490.148438 240.078125 489.832031 239.40625 489.480469 238.753906 C 489.128906 238.097656 488.75 237.460938 488.339844 236.84375 C 487.929688 236.222656 487.492188 235.625 487.023438 235.046875 C 486.558594 234.46875 486.066406 233.914062 485.546875 233.382812 C 485.027344 232.851562 484.488281 232.34375 483.921875 231.863281 C 483.355469 231.382812 482.769531 230.929688 482.160156 230.5 C 481.550781 230.074219 480.925781 229.679688 480.28125 229.3125 C 479.636719 228.945312 478.972656 228.605469 478.296875 228.300781 C 477.621094 227.996094 476.929688 227.722656 476.226562 227.480469 C 475.527344 227.242188 474.8125 227.035156 474.09375 226.859375 C 473.371094 226.683594 472.640625 226.546875 471.90625 226.4375 C 471.171875 226.332031 470.433594 226.261719 469.691406 226.226562 C 468.949219 226.1875 468.207031 226.1875 467.464844 226.21875 C 462.980469 226.472656 458.636719 227.398438 454.4375 228.992188 C 450.234375 230.589844 446.375 232.785156 442.851562 235.574219 C 442.28125 236.242188 441.988281 237.019531 441.96875 237.898438 L 441.96875 238.085938 C 442.976562 244.644531 443.332031 251.234375 443.039062 257.863281 C 443.039062 262.941406 443.039062 268.316406 443.039062 273.660156 C 443.039062 284.351562 442.90625 294.722656 443.039062 302.445312 C 443.011719 302.878906 443.023438 303.308594 443.074219 303.738281 C 443.121094 304.167969 443.210938 304.589844 443.335938 305.003906 C 443.460938 305.417969 443.621094 305.816406 443.816406 306.203125 C 444.015625 306.585938 444.242188 306.953125 444.503906 307.296875 C 444.765625 307.640625 445.058594 307.960938 445.375 308.25 C 445.695312 308.542969 446.035156 308.808594 446.402344 309.039062 C 446.765625 309.269531 447.148438 309.46875 447.550781 309.628906 C 447.949219 309.792969 448.363281 309.921875 448.785156 310.011719 L 452.394531 310.839844 C 454.558594 311.347656 456.777344 311.882812 460.0625 312.414062 C 460.5625 314.691406 460.515625 316.953125 459.929688 319.203125 C 459.789062 320.050781 459.480469 320.824219 458.992188 321.53125 C 450.707031 321.261719 442.238281 320.996094 429.96875 320.996094 C 426.28125 320.996094 420.214844 321.15625 414.871094 321.316406 L 404.179688 321.558594 C 403.535156 320.042969 403.257812 318.46875 403.351562 316.824219 C 403.222656 315.285156 403.507812 313.824219 404.207031 312.441406 L 407.492188 311.855469 C 410.378906 311.320312 412.839844 310.890625 415.242188 310.304688 C 419.28125 309.074219 420.800781 306.828125 421.097656 301.671875 C 421.898438 289.671875 422.511719 255.03125 420.804688 246.371094 C 417.917969 232.445312 409.980469 225.390625 397.257812 225.390625 C 392.773438 225.671875 388.433594 226.613281 384.238281 228.214844 C 380.042969 229.8125 376.175781 232 372.644531 234.773438 C 371.890625 235.496094 371.316406 236.34375 370.921875 237.3125 C 370.527344 238.28125 370.34375 239.285156 370.371094 240.332031 C 370.371094 244.445312 370.371094 249.363281 370.371094 254.605469 C 370.371094 272.003906 370.371094 293.652344 370.691406 303.007812 C 370.691406 303.46875 370.734375 303.925781 370.820312 304.378906 C 370.902344 304.832031 371.027344 305.273438 371.191406 305.703125 C 371.351562 306.132812 371.554688 306.546875 371.792969 306.941406 C 372.03125 307.335938 372.300781 307.703125 372.605469 308.050781 C 372.910156 308.394531 373.246094 308.710938 373.605469 308.996094 C 373.96875 309.28125 374.351562 309.53125 374.761719 309.746094 C 375.167969 309.960938 375.589844 310.136719 376.03125 310.277344 C 376.46875 310.414062 376.917969 310.515625 377.375 310.570312 C 379.234375 311.023438 381.113281 311.382812 383.011719 311.640625 L 387.421875 312.414062 C 387.914062 315.523438 387.664062 318.570312 386.671875 321.558594 C 384.296875 321.558594 381.328125 321.394531 378.015625 321.234375 C 372.910156 321.023438 366.523438 320.726562 359.304688 320.726562 C 350.78125 320.726562 344.820312 321.023438 340.035156 321.234375 C 336.828125 321.394531 334.050781 321.53125 331.296875 321.558594 Z M 331.109375 321.476562 " fill-opacity="1" fill-rule="nonzero"/><g clip-path="url(#e99197d6bb)"><path fill="#ffffff" d="M 300.480469 205.039062 L 415.679688 205.039062 L 415.679688 345.601562 L 300.480469 345.601562 Z M 300.480469 205.039062 " fill-opacity="1" fill-rule="nonzero"/></g></svg>