<svg xmlns="http://www.w3.org/2000/svg" xmlns:xlink="http://www.w3.org/1999/xlink" width="512" zoomAndPan="magnify" viewBox="0 0 384 383.999986" height="512" preserveAspectRatio="xMidYMid meet" version="1.0"><defs><clipPath id="c4f2ba429e"><path d="M 21.644531 0 L 362.144531 0 L 362.144531 384 L 21.644531 384 Z M 21.644531 0 " clip-rule="nonzero"/></clipPath></defs><g clip-path="url(#c4f2ba429e)"><path fill="#539e43" d="M 191.890625 383.957031 C 189.300781 383.949219 186.753906 383.617188 184.246094 382.96875 C 181.742188 382.316406 179.355469 381.367188 177.085938 380.121094 L 130.203125 352.253906 C 123.15625 348.414062 126.679688 346.964844 128.796875 346.257812 C 138.3125 343.085938 140.078125 342.378906 149.945312 336.738281 C 151.003906 336.03125 152.410156 336.382812 153.46875 337.089844 L 189.417969 358.589844 C 190.082031 358.945312 190.785156 359.121094 191.535156 359.121094 C 192.289062 359.121094 192.992188 358.945312 193.65625 358.589844 L 334.296875 277.089844 C 334.640625 276.902344 334.953125 276.671875 335.230469 276.394531 C 335.507812 276.117188 335.738281 275.804688 335.925781 275.460938 C 336.113281 275.117188 336.246094 274.753906 336.328125 274.367188 C 336.410156 273.984375 336.4375 273.597656 336.40625 273.207031 L 336.40625 110.609375 C 336.4375 110.21875 336.410156 109.832031 336.328125 109.445312 C 336.246094 109.0625 336.113281 108.699219 335.925781 108.355469 C 335.738281 108.007812 335.507812 107.699219 335.230469 107.421875 C 334.953125 107.144531 334.640625 106.910156 334.296875 106.722656 L 193.65625 25.609375 C 192.992188 25.257812 192.289062 25.078125 191.535156 25.078125 C 190.785156 25.078125 190.082031 25.257812 189.417969 25.609375 L 48.777344 106.769531 C 48.105469 107.183594 47.582031 107.738281 47.203125 108.429688 C 46.828125 109.125 46.648438 109.867188 46.667969 110.65625 L 46.667969 273.207031 C 46.648438 273.996094 46.828125 274.738281 47.203125 275.429688 C 47.582031 276.125 48.105469 276.679688 48.777344 277.089844 L 87.199219 299.3125 C 108.003906 309.894531 121.039062 297.546875 121.039062 285.199219 L 121.039062 124.722656 C 121.042969 124.445312 121.074219 124.171875 121.128906 123.902344 C 121.1875 123.628906 121.269531 123.367188 121.375 123.113281 C 121.484375 122.855469 121.613281 122.613281 121.769531 122.382812 C 121.921875 122.15625 122.097656 121.941406 122.292969 121.746094 C 122.488281 121.550781 122.703125 121.375 122.929688 121.222656 C 123.160156 121.066406 123.402344 120.933594 123.65625 120.828125 C 123.914062 120.71875 124.175781 120.636719 124.445312 120.582031 C 124.71875 120.523438 124.992188 120.496094 125.269531 120.492188 L 143.246094 120.492188 C 143.523438 120.496094 143.796875 120.523438 144.066406 120.582031 C 144.339844 120.636719 144.601562 120.71875 144.855469 120.828125 C 145.113281 120.933594 145.355469 121.066406 145.582031 121.222656 C 145.8125 121.375 146.027344 121.550781 146.222656 121.746094 C 146.417969 121.941406 146.59375 122.15625 146.746094 122.382812 C 146.902344 122.613281 147.03125 122.855469 147.140625 123.113281 C 147.246094 123.367188 147.328125 123.628906 147.386719 123.902344 C 147.441406 124.171875 147.472656 124.445312 147.476562 124.722656 L 147.476562 285.199219 C 147.476562 313.0625 132.320312 329.289062 105.882812 329.289062 C 97.773438 329.289062 91.433594 329.289062 73.457031 320.472656 L 36.445312 299.3125 C 35.324219 298.660156 34.25 297.9375 33.222656 297.144531 C 32.195312 296.351562 31.226562 295.496094 30.308594 294.578125 C 29.394531 293.65625 28.542969 292.683594 27.753906 291.652344 C 26.96875 290.621094 26.25 289.542969 25.605469 288.417969 C 24.957031 287.292969 24.386719 286.128906 23.890625 284.929688 C 23.398438 283.730469 22.984375 282.503906 22.648438 281.25 C 22.3125 279.992188 22.0625 278.722656 21.894531 277.4375 C 21.726562 276.148438 21.644531 274.855469 21.644531 273.558594 L 21.644531 110.960938 C 21.644531 109.664062 21.726562 108.375 21.894531 107.085938 C 22.0625 105.800781 22.316406 104.53125 22.648438 103.277344 C 22.984375 102.023438 23.398438 100.796875 23.890625 99.597656 C 24.386719 98.398438 24.957031 97.234375 25.605469 96.109375 C 26.25 94.984375 26.96875 93.90625 27.757812 92.875 C 28.542969 91.84375 29.394531 90.871094 30.308594 89.949219 C 31.226562 89.03125 32.195312 88.175781 33.222656 87.382812 C 34.25 86.589844 35.324219 85.867188 36.445312 85.21875 L 177.085938 3.742188 C 178.222656 3.136719 179.390625 2.601562 180.589844 2.140625 C 181.789062 1.679688 183.011719 1.292969 184.261719 0.980469 C 185.507812 0.667969 186.769531 0.433594 188.046875 0.277344 C 189.324219 0.117188 190.605469 0.0390625 191.890625 0.0390625 C 193.175781 0.0390625 194.457031 0.117188 195.734375 0.277344 C 197.007812 0.433594 198.269531 0.667969 199.519531 0.980469 C 200.765625 1.292969 201.988281 1.679688 203.191406 2.140625 C 204.390625 2.601562 205.558594 3.136719 206.691406 3.742188 L 347.332031 85.21875 C 348.453125 85.867188 349.527344 86.589844 350.554688 87.382812 C 351.582031 88.175781 352.554688 89.03125 353.46875 89.949219 C 354.382812 90.871094 355.234375 91.84375 356.023438 92.875 C 356.8125 93.90625 357.527344 94.984375 358.175781 96.109375 C 358.820312 97.234375 359.390625 98.398438 359.886719 99.597656 C 360.382812 100.796875 360.796875 102.023438 361.128906 103.277344 C 361.464844 104.53125 361.714844 105.800781 361.882812 107.085938 C 362.054688 108.375 362.136719 109.664062 362.136719 110.960938 L 362.136719 273.558594 C 362.136719 274.855469 362.054688 276.148438 361.886719 277.4375 C 361.714844 278.722656 361.464844 279.992188 361.132812 281.25 C 360.796875 282.503906 360.382812 283.730469 359.886719 284.929688 C 359.394531 286.128906 358.824219 287.292969 358.175781 288.417969 C 357.527344 289.542969 356.8125 290.621094 356.023438 291.652344 C 355.238281 292.683594 354.386719 293.65625 353.46875 294.578125 C 352.554688 295.496094 351.582031 296.351562 350.554688 297.144531 C 349.53125 297.9375 348.457031 298.660156 347.332031 299.3125 L 206.691406 380.789062 C 201.984375 382.902344 197.050781 383.960938 191.890625 383.957031 Z M 235.246094 272.152344 C 173.558594 272.152344 160.875 243.9375 160.875 219.941406 C 160.875 219.664062 160.90625 219.390625 160.964844 219.121094 C 161.019531 218.847656 161.101562 218.585938 161.210938 218.332031 C 161.316406 218.074219 161.449219 217.832031 161.601562 217.601562 C 161.757812 217.375 161.929688 217.160156 162.128906 216.964844 C 162.324219 216.769531 162.535156 216.59375 162.765625 216.441406 C 162.996094 216.285156 163.238281 216.15625 163.492188 216.046875 C 163.746094 215.9375 164.007812 215.855469 164.28125 215.800781 C 164.550781 215.742188 164.824219 215.714844 165.101562 215.710938 L 183.449219 215.710938 C 185.558594 215.710938 187.285156 217.125 187.285156 219.234375 C 190.101562 237.933594 198.210938 247.101562 235.574219 247.101562 C 265.179688 247.101562 277.871094 240.402344 277.871094 224.527344 C 277.871094 215.359375 274.351562 208.65625 228.171875 204.070312 C 189.75 200.191406 165.785156 191.730469 165.785156 161.070312 C 165.785156 132.507812 189.75 115.578125 229.933594 115.578125 C 275.054688 115.578125 297.253906 131.09375 300.078125 164.957031 C 300.050781 166.121094 299.699219 167.179688 299.019531 168.128906 C 298.265625 168.964844 297.324219 169.433594 296.203125 169.539062 L 277.894531 169.539062 C 277.441406 169.523438 277.003906 169.4375 276.582031 169.277344 C 276.15625 169.117188 275.769531 168.894531 275.421875 168.605469 C 275.070312 168.320312 274.777344 167.984375 274.535156 167.601562 C 274.296875 167.214844 274.125 166.804688 274.019531 166.363281 C 269.792969 146.964844 258.863281 140.617188 229.957031 140.617188 C 197.53125 140.617188 193.65625 151.902344 193.65625 160.363281 C 193.65625 170.59375 198.257812 173.773438 241.945312 179.414062 C 285.300781 185.058594 305.742188 193.167969 305.742188 223.503906 C 305.390625 254.539062 280.011719 272.175781 235.246094 272.175781 Z M 235.246094 272.152344 " fill-opacity="1" fill-rule="nonzero"/></g></svg>