<svg xmlns="http://www.w3.org/2000/svg" xmlns:xlink="http://www.w3.org/1999/xlink" width="500" zoomAndPan="magnify" viewBox="0 0 375 374.999991" height="500" preserveAspectRatio="xMidYMid meet" version="1.0"><defs><g/><clipPath id="2fc284925f"><path d="M 16.527344 16.527344 L 358.472656 16.527344 L 358.472656 26.785156 L 16.527344 26.785156 Z M 348.328125 26.785156 L 358.472656 26.785156 L 358.472656 348.328125 L 348.328125 348.328125 Z M 16.527344 26.785156 L 26.785156 26.785156 L 26.785156 348.328125 L 16.527344 348.328125 Z M 16.527344 348.328125 L 358.472656 348.328125 L 358.472656 358.472656 L 16.527344 358.472656 Z M 16.527344 348.328125 " clip-rule="nonzero"/></clipPath></defs><rect x="-37.5" width="450" fill="#ffffff" y="-37.499999" height="449.999989" fill-opacity="1"/><rect x="-37.5" width="450" fill="#000000" y="-37.499999" height="449.999989" fill-opacity="1"/><g clip-path="url(#2fc284925f)"><path fill="#ffffff" d="M 16.527344 16.527344 L 358.472656 16.527344 L 358.472656 358.472656 L 16.527344 358.472656 Z M 16.527344 16.527344 " fill-opacity="1" fill-rule="nonzero"/></g><g fill="#ffffff" fill-opacity="1"><g transform="translate(119.49138, 233.794494)"><g><path d="M 7.855469 0 L 59.441406 0 L 59.441406 -17.808594 L 27.496094 -17.808594 L 27.496094 -89.035156 L 7.855469 -89.035156 Z M 7.855469 0 "/></g></g></g><g fill="#ffffff" fill-opacity="1"><g transform="translate(183.512955, 233.794494)"><g><path d="M 27.496094 -31.816406 L 27.625 -31.816406 L 48.835938 0 L 73.714844 0 L 48.183594 -32.734375 C 59.441406 -35.484375 68.476562 -45.433594 68.476562 -60.492188 C 68.476562 -77.382812 55.644531 -89.035156 41.242188 -89.035156 L 7.855469 -89.035156 L 7.855469 0 L 27.496094 0 Z M 37.96875 -73.582031 C 43.730469 -73.582031 49.753906 -68.609375 49.753906 -60.492188 C 49.753906 -51.980469 43.730469 -47.265625 37.96875 -47.265625 L 27.496094 -47.265625 L 27.496094 -73.582031 Z M 37.96875 -73.582031 "/></g></g></g></svg>